HIERARCHY
ROOT hip
{
  OFFSET 6.50917 79.7227 267.951
  CHANNELS 6 Xposition Yposition Zposition Zrotation Xrotation Yrotation
  JOINT abdomen
  {
    OFFSET 0 20.6881 -0.73152
    CHANNELS 3 Zrotation Xrotation Yrotation
    JOINT chest
    {
      OFFSET 0 11.7043 -0.48768
      CHANNELS 3 Zrotation Xrotation Yrotation
      JOINT neck
      {
        OFFSET 0 22.1894 -2.19456
        CHANNELS 3 Zrotation Xrotation Yrotation
        JOINT head
        {
          OFFSET -0.24384 7.07133 1.2192
          CHANNELS 3 Zrotation Xrotation Yrotation
          JOINT leftEye
          {
            OFFSET 4.14528 8.04674 8.04672
            CHANNELS 3 Zrotation Xrotation Yrotation
            End Site
            {
              OFFSET 1 0 0
            }
          }
          JOINT rightEye
          {
            OFFSET -3.6576 8.04674 8.04672
            CHANNELS 3 Zrotation Xrotation Yrotation
            End Site
            {
              OFFSET 1 0 0
            }
          }
        }
      }
      JOINT rCollar
      {
        OFFSET -2.68224 19.2634 -4.8768
        CHANNELS 3 Zrotation Xrotation Yrotation
        JOINT rShldr
        {
          OFFSET -8.77824 -1.95073 1.46304
          CHANNELS 3 Zrotation Xrotation Yrotation
          JOINT rForeArm
          {
            OFFSET -28.1742 -1.7115 0.48768
            CHANNELS 3 Zrotation Xrotation Yrotation
            JOINT rHand
            {
              OFFSET -22.5879 0.773209 7.07136
              CHANNELS 3 Zrotation Xrotation Yrotation
              JOINT rThumb1
              {
                OFFSET -1.2192 -0.487915 3.41376
                CHANNELS 3 Zrotation Xrotation Yrotation
                JOINT rThumb2
                {
                  OFFSET -3.37035 -0.52449 3.41376
                  CHANNELS 3 Zrotation Xrotation Yrotation
                  End Site
                  {
                    OFFSET -1.78271 -1.18214 1.43049
                  }
                }
              }
              JOINT rIndex1
              {
                OFFSET -7.75947 0.938293 5.60832
                CHANNELS 3 Zrotation Xrotation Yrotation
                JOINT rIndex2
                {
                  OFFSET -2.54057 -0.884171 1.56538
                  CHANNELS 3 Zrotation Xrotation Yrotation
                  End Site
                  {
                    OFFSET -1.62519 -0.234802 1.16502
                  }
                }
              }
              JOINT rMid1
              {
                OFFSET -8.24714 1.18213 3.41376
                CHANNELS 3 Zrotation Xrotation Yrotation
                JOINT rMid2
                {
                  OFFSET -3.10165 -0.590103 1.0647
                  CHANNELS 3 Zrotation Xrotation Yrotation
                  End Site
                  {
                    OFFSET -2.48547 -0.328903 0.83742
                  }
                }
              }
              JOINT rRing1
              {
                OFFSET -8.82822 0.546677 1.51678
                CHANNELS 3 Zrotation Xrotation Yrotation
                JOINT rRing2
                {
                  OFFSET -2.60934 -0.819778 -0.0198488
                  CHANNELS 3 Zrotation Xrotation Yrotation
                  End Site
                  {
                    OFFSET -2.33842 -0.294052 0.168128
                  }
                }
              }
              JOINT rPinky1
              {
                OFFSET -8.27202 -0.0477905 -0.4584
                CHANNELS 3 Zrotation Xrotation Yrotation
                JOINT rPinky2
                {
                  OFFSET -1.82734 -0.647385 -0.700984
                  CHANNELS 3 Zrotation Xrotation Yrotation
                  End Site
                  {
                    OFFSET -1.69225 -0.51767 -0.607171
                  }
                }
              }
            }
          }
        }
      }
      JOINT lCollar
      {
        OFFSET 2.68224 19.2634 -4.8768
        CHANNELS 3 Zrotation Xrotation Yrotation
        JOINT lShldr
        {
          OFFSET 8.77824 -1.95073 1.46304
          CHANNELS 3 Zrotation Xrotation Yrotation
          JOINT lForeArm
          {
            OFFSET 28.1742 -1.7115 0.48768
            CHANNELS 3 Zrotation Xrotation Yrotation
            JOINT lHand
            {
              OFFSET 22.5879 0.773209 7.07136
              CHANNELS 3 Zrotation Xrotation Yrotation
              JOINT lThumb1
              {
                OFFSET 1.2192 -0.487915 3.41376
                CHANNELS 3 Zrotation Xrotation Yrotation
                JOINT lThumb2
                {
                  OFFSET 3.37035 -0.52449 3.41376
                  CHANNELS 3 Zrotation Xrotation Yrotation
                  End Site
                  {
                    OFFSET 1.78271 -1.18214 1.43049
                  }
                }
              }
              JOINT lIndex1
              {
                OFFSET 7.75947 0.938293 5.60832
                CHANNELS 3 Zrotation Xrotation Yrotation
                JOINT lIndex2
                {
                  OFFSET 2.54057 -0.884171 1.56538
                  CHANNELS 3 Zrotation Xrotation Yrotation
                  End Site
                  {
                    OFFSET 1.62519 -0.234802 1.16502
                  }
                }
              }
              JOINT lMid1
              {
                OFFSET 8.24714 1.18213 3.41376
                CHANNELS 3 Zrotation Xrotation Yrotation
                JOINT lMid2
                {
                  OFFSET 3.10165 -0.590103 1.0647
                  CHANNELS 3 Zrotation Xrotation Yrotation
                  End Site
                  {
                    OFFSET 2.48547 -0.328903 0.83742
                  }
                }
              }
              JOINT lRing1
              {
                OFFSET 8.82822 0.546677 1.51678
                CHANNELS 3 Zrotation Xrotation Yrotation
                JOINT lRing2
                {
                  OFFSET 2.60934 -0.819778 -0.0198488
                  CHANNELS 3 Zrotation Xrotation Yrotation
                  End Site
                  {
                    OFFSET 2.33842 -0.294052 0.168128
                  }
                }
              }
              JOINT lPinky1
              {
                OFFSET 8.27202 -0.0477905 -0.4584
                CHANNELS 3 Zrotation Xrotation Yrotation
                JOINT lPinky2
                {
                  OFFSET 1.82734 -0.647385 -0.700984
                  CHANNELS 3 Zrotation Xrotation Yrotation
                  End Site
                  {
                    OFFSET 1.69225 -0.51767 -0.607171
                  }
                }
              }
            }
          }
        }
      }
    }
  }
  JOINT rButtock
  {
    OFFSET -8.77824 4.35084 1.2192
    CHANNELS 3 Zrotation Xrotation Yrotation
    JOINT rThigh
    {
      OFFSET 0 -1.70687 -2.19456
      CHANNELS 3 Zrotation Xrotation Yrotation
      JOINT rShin
      {
        OFFSET 0 -36.8199 0.73152
        CHANNELS 3 Zrotation Xrotation Yrotation
        JOINT rFoot
        {
          OFFSET 0.73152 -45.1104 -5.12064
          CHANNELS 3 Zrotation Xrotation Yrotation
          End Site
          {
            OFFSET -1.1221 -3.69964 12.103
          }
        }
      }
    }
  }
  JOINT lButtock
  {
    OFFSET 8.77824 4.35084 1.2192
    CHANNELS 3 Zrotation Xrotation Yrotation
    JOINT lThigh
    {
      OFFSET 0 -1.70687 -2.19456
      CHANNELS 3 Zrotation Xrotation Yrotation
      JOINT lShin
      {
        OFFSET 0 -36.8199 0.73152
        CHANNELS 3 Zrotation Xrotation Yrotation
        JOINT lFoot
        {
          OFFSET -0.73152 -45.1104 -5.12064
          CHANNELS 3 Zrotation Xrotation Yrotation
          End Site
          {
            OFFSET 1.1221 -3.69964 12.103
          }
        }
      }
    }
  }
}
MOTION
Frames:	4
Frame Time:	0.00833333
118.105 84.3737 -111.957 0.788404 0.000540206 -0.014445 -1.03703 -0.0041444 -0.0285997 -0.285911 -0.00382803 -0.0495309 -2.46387e-014 0 1.98785e-016 -7.39324e-014 3.18055e-015 5.48211e-016 -0 0 0 -0 0 0 -1.23264e-014 -4.27076e-018 1.98785e-016 -2.55741e-013 -3.72721e-017 2.38542e-015 -4.45178e-012 1.33305e-012 6.99722e-014 -5.10148e-011 -1.33963e-012 2.92611e-013 -1.20327e-010 -1.51155e-014 8.17403e-013 -2.07801e-010 -2.54444e-014 1.40342e-012 -1.20321e-010 -1.39149e-014 8.11041e-013 7.73091 5.47488 0.417314 -1.20328e-010 -1.5207e-014 8.11041e-013 2.90554 0.965183 0.102902 -1.20318e-010 -1.46107e-014 8.05475e-013 10.2786 0.731801 0.0259123 -1.2033e-010 -1.43125e-014 8.11041e-013 2.22167 -0.733487 -0.20892 -1.23237e-014 -4.65902e-018 0 -2.61251e-013 6.21202e-017 1.98785e-016 -4.46033e-012 -1.33186e-012 5.08889e-014 -5.1014e-011 1.32602e-012 3.21236e-013 -1.2034e-010 -1.61422e-014 8.015e-013 -2.07812e-010 -3.18055e-014 1.3907e-012 -1.20347e-010 -1.35174e-014 8.14222e-013 -7.73091 5.47488 -0.417314 -1.2034e-010 -1.60022e-014 7.98319e-013 -2.90554 0.965183 -0.102902 -1.20351e-010 -1.61016e-014 8.03885e-013 -10.2786 0.731801 -0.0259123 -1.20336e-010 -1.59028e-014 8.015e-013 -2.22167 -0.733487 0.20892 -2.03217e-016 0 -3.88251e-019 -0.272887 -1.9197 -0.0125397 -0.0093847 -2.07854 -0.0775777 -0.513213 3.99654 0.140452 2.03217e-016 0 3.88251e-019 -1.30499 -5.55694 0.114028 -0.000204153 4.50983 -0.0271165 0.527422 1.04554 -0.0815592 
119.789 82.3338 -116.341 -0.928211 0.923819 16.0601 -2.60259 2.28439 -1.8508 0.547452 -1.68231 -0.558441 -1.24653 -0.18746 -2.15957 2.9439 5.42707 -4.10577 -0 0 0 -0 0 0 -4.65607e-014 1.40963e-013 -2.4734e-013 20.0891 10.6934 -4.27263 -9.44194 -6.30177 11.925 5.91534e-005 0.17544 0.0246561 8.95621e-011 -2.54889e-010 3.24128e-010 1.54781e-010 -4.32368e-010 5.56894e-010 8.95673e-011 -2.54888e-010 3.24125e-010 7.73091 5.47488 0.417314 8.95608e-011 -2.54889e-010 3.24124e-010 2.90554 0.965183 0.102902 8.95714e-011 -2.54888e-010 3.24121e-010 10.2786 0.731801 0.0259123 8.95589e-011 -2.54888e-010 3.24127e-010 2.22167 -0.733487 -0.20892 -4.65178e-014 1.40954e-013 -2.47555e-013 -19.5789 6.92304 -0.419492 5.87536 -3.10925 -8.65075 -0.0796466 -6.27162 0.862511 6.1729e-010 1.34819e-010 -4.70085e-010 1.07634e-009 2.32229e-010 -8.01447e-010 6.17279e-010 1.34822e-010 -4.7007e-010 -7.73091 5.47488 -0.417314 6.17288e-010 1.34819e-010 -4.70088e-010 -2.90554 0.965183 -0.102902 6.17278e-010 1.34819e-010 -4.70081e-010 -10.2786 0.731801 -0.0259123 6.17295e-010 1.34819e-010 -4.70085e-010 -2.22167 -0.733487 0.20892 -2.03217e-016 0 -3.88251e-019 0.501862 -9.81784 -1.86893 0.0210095 9.48729 0.105576 -0.349537 -3.86717 0.347567 2.03217e-016 0 3.88251e-019 1.38218 -9.82355 -1.61316 -0.115151 17.7409 -0.310255 0.868157 -10.0879 2.07149 
119.877 82.5096 -114.618 -3.27236 1.67057 33.1427 -4.13102 4.68499 -3.82702 1.40713 -3.45196 -1.10981 -2.58826 -0.378488 -4.44796 6.93402 11.0763 -8.58019 -0 0 0 -0 0 0 -8.97211e-014 3.0334e-013 -4.93439e-013 43.2219 21.8069 -9.36323 -16.6347 -12.0838 25.0043 -4.38639e-005 0.356187 0.0500589 3.1838e-010 -5.89296e-010 6.87687e-010 5.49964e-010 -1.00215e-009 1.18191e-009 3.18384e-010 -5.89295e-010 6.87689e-010 7.73091 5.47488 0.417314 3.18378e-010 -5.89295e-010 6.87686e-010 2.90554 0.965183 0.102902 3.18389e-010 -5.89295e-010 6.87686e-010 10.2786 0.731801 0.0259123 3.18376e-010 -5.89295e-010 6.87692e-010 2.22167 -0.733487 -0.20892 -8.9632e-014 3.03322e-013 -4.93672e-013 -40.1577 14.2423 -0.949925 11.0506 -6.13563 -17.8404 0.0461582 -12.869 1.80549 1.43135e-009 2.80901e-010 -9.08234e-010 2.49167e-009 4.83638e-010 -1.54625e-009 1.43134e-009 2.80903e-010 -9.08216e-010 -7.73091 5.47488 -0.417314 1.43135e-009 2.80901e-010 -9.08237e-010 -2.90554 0.965183 -0.102902 1.43134e-009 2.80901e-010 -9.08229e-010 -10.2786 0.731801 -0.0259123 1.43136e-009 2.80901e-010 -9.08233e-010 -2.22167 -0.733487 0.20892 -2.03217e-016 0 -3.88251e-019 0.723242 -18.1835 -4.01394 -0.0317467 21.7855 0.321278 -0.12517 -12.2142 0.539099 2.03217e-016 0 3.88251e-019 3.92763 -14.2821 -3.49542 -0.0702496 31.6225 -0.679724 2.16849 -21.9341 4.52248 
119.978 82.7242 -112.887 -5.71368 1.921 48.2389 -5.29507 6.83339 -5.53019 2.12444 -5.0376 -1.58165 -3.78189 -0.559184 -6.47897 11.2238 15.9404 -12.7604 -0 0 0 -0 0 0 -1.15029e-013 4.22897e-013 -7.42418e-013 65.6937 31.3043 -14.786 -20.7877 -15.6133 37.1407 -0.000275539 0.52632 0.0739711 5.09341e-010 -7.64637e-010 9.70748e-010 8.79945e-010 -1.29705e-009 1.66787e-009 5.09344e-010 -7.64636e-010 9.70754e-010 7.73091 5.47488 0.417314 5.09338e-010 -7.64636e-010 9.70749e-010 2.90554 0.965183 0.102902 5.0935e-010 -7.64636e-010 9.70752e-010 10.2786 0.731801 0.0259123 5.09337e-010 -7.64636e-010 9.70757e-010 2.22167 -0.733487 -0.20892 -1.14906e-013 4.22872e-013 -7.42665e-013 -58.4146 20.7645 -1.3361 14.8909 -8.47884 -26.2218 0.354455 -18.7973 2.71706 2.09255e-009 4.04491e-010 -1.41186e-009 3.64465e-009 6.96749e-010 -2.40712e-009 2.09253e-009 4.04492e-010 -1.41184e-009 -7.73091 5.47488 -0.417314 2.09254e-009 4.0449e-010 -1.41186e-009 -2.90554 0.965183 -0.102902 2.09254e-009 4.04491e-010 -1.41185e-009 -10.2786 0.731801 -0.0259123 2.09256e-009 4.0449e-010 -1.41186e-009 -2.22167 -0.733487 0.20892 -2.03217e-016 0 -3.88251e-019 0.374364 -25.503 -6.09543 -0.170782 32.6178 0.554981 0.158486 -19.593 0.806826 2.03217e-016 0 3.88251e-019 5.94836 -18.2959 -5.26219 0.185133 44.1979 -1.16114 4.43167 -32.1565 7.42556 
